<?xml version="1.0" encoding="utf-8"?>
<!-- Generator: Adobe Illustrator 17.0.0, SVG Export Plug-In . SVG Version: 6.00 Build 0)  -->
<!DOCTYPE svg PUBLIC "-//W3C//DTD SVG 1.1//EN" "http://www.w3.org/Graphics/SVG/1.1/DTD/svg11.dtd">
<svg version="1.1" id="Layer_1" xmlns="http://www.w3.org/2000/svg" xmlns:xlink="http://www.w3.org/1999/xlink" x="0px" y="0px"
	 width="28px" height="23.671px" viewBox="0 0 28 23.671" enable-background="new 0 0 28 23.671" xml:space="preserve">
<path fill="#3E3E3E" d="M27.613,8.595c-0.516-0.516-1.352-0.516-1.868,0l-2.13,2.132C23.053,4.72,17.985,0,11.834,0
	C5.309,0,0,5.309,0,11.835s5.309,11.836,11.834,11.836c2.406,0,4.722-0.718,6.697-2.076c0.601-0.413,0.754-1.236,0.34-1.836
	c-0.413-0.601-1.236-0.754-1.836-0.341c-1.533,1.054-3.331,1.611-5.2,1.611c-5.068,0-9.193-4.124-9.193-9.194
	s4.124-9.193,9.192-9.193c4.857,0,8.844,3.787,9.168,8.564l-2.609-2.61c-0.516-0.516-1.352-0.516-1.868,0
	c-0.516,0.516-0.516,1.352,0,1.868l4.611,4.611c0.249,0.247,0.583,0.386,0.935,0.386s0.686-0.139,0.935-0.386l4.61-4.611
	C28.129,9.948,28.129,9.112,27.613,8.595z"/>
</svg>
