<?xml version="1.0" encoding="utf-8"?>
<!-- Generator: Adobe Illustrator 17.0.0, SVG Export Plug-In . SVG Version: 6.00 Build 0)  -->
<!DOCTYPE svg PUBLIC "-//W3C//DTD SVG 1.1//EN" "http://www.w3.org/Graphics/SVG/1.1/DTD/svg11.dtd">
<svg version="1.1" id="Layer_1" xmlns="http://www.w3.org/2000/svg" xmlns:xlink="http://www.w3.org/1999/xlink" x="0px" y="0px"
	 width="30px" height="28.442px" viewBox="32.199 30.527 30 28.442" enable-background="new 32.199 30.527 30 28.442"
	 xml:space="preserve">
<g>
	<path fill="#3E3E3E" d="M60.928,35.236h-6.571v-3.914c0-0.439-0.356-0.795-0.795-0.795H40.836c-0.439,0-0.795,0.356-0.795,0.795
		v3.914H33.47c-0.702,0-1.271,0.569-1.271,1.271v14.935c0,0.702,0.569,1.271,1.271,1.271h4.987l-0.788,5.159
		c-0.042,0.275,0.038,0.554,0.219,0.765c0.181,0.211,0.445,0.333,0.723,0.333h17.176c0,0,0.005,0,0.007,0
		c0.526,0,0.953-0.427,0.953-0.953c0-0.087-0.012-0.173-0.034-0.253l-0.772-5.05h4.986c0.702,0,1.271-0.569,1.271-1.271V36.507
		C62.199,35.805,61.63,35.236,60.928,35.236z M41.631,32.116h11.137v3.119H41.631V32.116z M39.722,57.064l1.298-8.494h12.36
		l1.298,8.494H39.722z M59.657,50.171h-4.104l-0.412-2.699c-0.071-0.466-0.471-0.809-0.943-0.809H40.201
		c-0.471,0-0.871,0.344-0.943,0.809l-0.412,2.699h-4.104V37.778h24.915L59.657,50.171L59.657,50.171z"/>
	<path fill="#3E3E3E" d="M39.132,42.015h3.077c0.526,0,0.953-0.427,0.953-0.953c0-0.527-0.427-0.953-0.953-0.953h-3.077
		c-0.526,0-0.953,0.427-0.953,0.953C38.178,41.588,38.605,42.015,39.132,42.015z"/>
</g>
</svg>
